<svg width="61" height="25" viewBox="0 0 61 25" fill="none" xmlns="http://www.w3.org/2000/svg">
<path d="M26.7835 8.30444H20.9331C21.2879 10.2274 22.9814 11.6896 25.0163 11.6896H29.5547C29.5949 11.5094 29.615 11.3157 29.615 11.1288C29.615 9.56638 28.3499 8.30444 26.7835 8.30444Z" fill="#A8B2CA"/>
<path d="M16.4081 8.30444H13.7707C13.0946 8.30444 12.5056 8.74512 12.3181 9.39278L11.2204 13.1986H11.0329L9.92845 9.39278C9.74102 8.74512 9.15196 8.30444 8.48258 8.30444H5.84521V16.5838H8.48258V11.6896H8.67001L10.1828 16.5838H12.0705L13.5766 11.6896H13.764V16.5838H16.4081V8.30444Z" fill="#A8B2CA"/>
<path d="M20.1831 8.3042H17.5391V16.5836H20.1831V8.3042Z" fill="#A8B2CA"/>
<path d="M29.4474 12.0635H21.3145V16.5837H23.9518V13.9464H25.2103L26.5959 16.5837H29.6148L27.7405 13.7794C28.5371 13.4923 29.1663 12.8647 29.4474 12.0635Z" fill="#A8B2CA"/>
<path d="M32.3059 14.3403L32.6004 13.3588C32.6875 13.0383 32.8013 12.4841 32.8013 12.4841H32.8146C32.8146 12.4841 32.9284 13.0383 33.0221 13.3588L33.3033 14.3403H32.3059ZM33.4639 11.3357H32.1586L30.4316 16.3901H31.7102L32.0181 15.3285H33.5978L33.9124 16.3901H35.1843L33.4639 11.3357Z" fill="#A8B2CA"/>
<path d="M37.9757 11.2488C36.4093 11.2488 35.3115 12.3839 35.3115 13.8528C35.3115 15.3551 36.3424 16.4768 37.9757 16.4768C38.9061 16.4768 39.5688 16.0895 40.0173 15.6288L39.3814 14.7208C39.0333 15.068 38.5313 15.3484 38.0292 15.3484C37.0519 15.3484 36.5967 14.5739 36.5967 13.8261C36.5967 13.0983 37.0184 12.3839 38.0292 12.3839C38.4844 12.3839 38.973 12.6175 39.301 12.898L39.8767 11.9632C39.3814 11.4758 38.6517 11.2488 37.9757 11.2488Z" fill="#A8B2CA"/>
<path d="M42.9221 11.2488C41.3557 11.2488 40.2646 12.3839 40.2646 13.8528C40.2646 15.3551 41.2955 16.4768 42.9221 16.4768C43.8525 16.4768 44.5219 16.0895 44.9637 15.6288L44.3278 14.7208C43.9797 15.068 43.4844 15.3484 42.9823 15.3484C42.005 15.3484 41.5499 14.5739 41.5499 13.8261C41.5499 13.0983 41.9649 12.3839 42.9823 12.3839C43.4375 12.3839 43.9262 12.6175 44.2475 12.898L44.8231 11.9632C44.3278 11.4758 43.6049 11.2488 42.9221 11.2488Z" fill="#A8B2CA"/>
<path d="M48.773 11.3357H45.6001V16.3901H48.8734V15.3285H46.8385V14.3737H48.3847V13.3121H46.8385V12.3973H48.773V11.3357Z" fill="#A8B2CA"/>
<path d="M54.9245 13.7458H49.7368V16.4099H50.9752V14.8475H53.3783C54.1347 14.8475 54.6969 14.4135 54.9245 13.7458Z" fill="#A8B2CA"/>
<path d="M54.9308 12.9846C54.8572 12.2168 54.2882 11.5558 53.5318 11.3622C53.1369 11.262 52.6817 11.3087 52.2801 11.3087C51.2626 11.3087 50.2518 11.3087 49.2344 11.3087C49.5356 12.6975 50.6669 13.5322 52.0324 13.5322C52.6281 13.5322 53.2908 13.5322 53.8799 13.5322C54.1476 13.5322 54.4154 13.5322 54.6831 13.5322C54.7501 13.5322 54.8371 13.5322 54.904 13.5322C54.9442 13.3786 54.9375 13.0581 54.9308 12.9846C54.9241 12.9646 54.9375 13.0447 54.9308 12.9846Z" fill="#A8B2CA"/>
<path d="M60.1927 11.1619H55.3799V12.3437H57.0935V16.7972H58.4791V12.3437H60.1927V11.1619Z" fill="#A8B2CA"/>
<path d="M13.135 0.732666C6.42777 0.732666 0.979004 6.16767 0.979004 12.8513C0.979004 19.5415 6.42777 24.9832 13.135 24.9832C16.8501 24.9832 20.1836 23.3073 22.4126 20.6699H59.0412C59.068 20.5097 59.0814 20.3494 59.0814 20.1758C59.0814 18.9005 58.2915 17.8523 57.2807 17.7321C57.2473 17.7254 57.0866 17.7187 57.0866 17.7187H52.9565H21.181L21.1006 17.8456C19.4339 20.483 16.4886 22.2457 13.135 22.2457C7.94058 22.2457 3.72347 18.0325 3.72347 12.8513C3.72347 7.67665 7.94058 3.46352 13.135 3.46352C16.2811 3.46352 19.0724 5.01924 20.7793 7.39622H23.979C21.9775 3.44349 17.8675 0.732666 13.135 0.732666Z" fill="#A8B2CA"/>
</svg>
