<svg width="67" height="25" viewBox="0 0 67 25" fill="none" xmlns="http://www.w3.org/2000/svg">
<path fill-rule="evenodd" clip-rule="evenodd" d="M63.3608 9.98542C63.3608 9.26074 63.9241 8.67432 64.6118 8.67432C65.3033 8.67432 65.8607 9.26074 65.8607 9.98542C65.8607 10.7112 65.3035 11.2976 64.6118 11.2976C63.9241 11.2976 63.3608 10.7112 63.3608 9.98542ZM64.612 10.987C65.1376 10.987 65.5667 10.5371 65.5667 9.98542C65.5667 9.43658 65.1376 8.99066 64.612 8.99066C64.0885 8.99066 63.6574 9.43658 63.6574 9.98542C63.6574 10.5371 64.0885 10.987 64.612 10.987ZM64.4418 10.5601H64.1856V9.40503H64.6501C64.7446 9.40503 64.8506 9.4107 64.9318 9.46868C65.0206 9.53384 65.0717 9.64319 65.0717 9.75897C65.0717 9.88702 64.9989 10.0068 64.8828 10.0502L65.0833 10.5601H64.7985L64.6291 10.1074H64.4416V10.5601H64.4418ZM64.4418 9.911H64.5846C64.637 9.911 64.6978 9.9127 64.7417 9.88702C64.7851 9.85888 64.8044 9.80278 64.8044 9.7533C64.8044 9.70986 64.7792 9.65755 64.7417 9.63715C64.7035 9.61127 64.6264 9.61713 64.5815 9.61713H64.4418V9.911Z" fill="#A8B2CA"/>
<path fill-rule="evenodd" clip-rule="evenodd" d="M45.4744 1.26659L45.1317 3.49009C44.3884 3.09537 43.8417 2.94068 43.2578 2.94068C41.6997 2.94068 40.5977 4.52054 40.5977 6.77615C40.5977 8.3341 41.3375 9.27276 42.554 9.27276C43.0703 9.27276 43.6378 9.10731 44.3321 8.7445L43.9665 11.0843C43.1985 11.3048 42.6975 11.3831 42.1168 11.3831C39.8598 11.3831 38.4561 9.68505 38.4561 6.95935C38.4561 3.29292 40.3957 0.732666 43.1703 0.732666C43.5287 0.732666 43.8489 0.767606 44.1091 0.842774L44.9717 1.06828C45.2285 1.1697 45.2862 1.18519 45.4744 1.26659Z" fill="#A8B2CA"/>
<path fill-rule="evenodd" clip-rule="evenodd" d="M38.5278 2.79057C38.4621 2.77811 38.3894 2.76904 38.3137 2.76904C37.6241 2.76904 37.2342 3.13299 36.5939 4.12604L36.7798 2.85932H34.8839L33.5986 11.1945H35.7019C36.4539 6.10005 36.6463 5.22032 37.6546 5.22032C37.7159 5.22032 37.7216 5.22032 37.8075 5.22882C37.9935 4.22444 38.2481 3.48597 38.5994 2.81248L38.5278 2.79057Z" fill="#A8B2CA"/>
<path fill-rule="evenodd" clip-rule="evenodd" d="M25.9971 11.0929C25.4281 11.2817 24.9784 11.3677 24.4954 11.3677C23.4271 11.3677 22.8438 10.7185 22.8438 9.53416C22.8438 9.30186 22.8612 9.05124 22.9034 8.78683L23.0329 7.97414L23.1289 7.31028L24.037 1.6228H26.1177L25.8791 2.85949H26.95L26.656 4.88563H25.5877L25.0348 8.36433C25.0159 8.51788 24.9998 8.6312 24.9998 8.70958C24.9998 9.13642 25.2181 9.32717 25.7129 9.32717C25.9543 9.32717 26.1362 9.30205 26.2762 9.24936L25.9971 11.0929Z" fill="#A8B2CA"/>
<path fill-rule="evenodd" clip-rule="evenodd" d="M17.7465 5.49565C17.7465 6.54763 18.2323 7.27514 19.3326 7.81888C20.1752 8.23684 20.3091 8.35866 20.3091 8.73809C20.3091 9.25595 19.9351 9.49581 19.1115 9.49581C18.4902 9.49581 17.9095 9.39231 17.2402 9.16209L16.9507 11.0847L17.0454 11.1048L17.4295 11.186C17.5532 11.2122 17.7351 11.2356 17.9752 11.2615C18.4743 11.308 18.857 11.3303 19.1278 11.3303C21.3234 11.3303 22.3392 10.446 22.3392 8.54752C22.3392 7.40678 21.9158 6.73215 20.8695 6.22713C19.9965 5.81219 19.8974 5.71436 19.8974 5.32737C19.8974 4.87523 20.2437 4.64293 20.9161 4.64293C21.3262 4.64293 21.8823 4.69147 22.4132 4.76701L22.7115 2.84229C22.1658 2.74956 21.3554 2.67798 20.8752 2.67798C18.5455 2.67798 17.7378 3.95716 17.7465 5.49565Z" fill="#A8B2CA"/>
<path fill-rule="evenodd" clip-rule="evenodd" d="M62.1457 11.1947H60.1648L60.2687 10.378C59.6918 11.0232 59.0997 11.3048 58.3348 11.3048C56.8039 11.3048 55.8008 9.92888 55.8008 7.84476C55.8008 5.07241 57.3596 2.73162 59.2109 2.73162C60.0243 2.73162 60.6393 3.08291 61.2185 3.87274L61.674 0.94458H63.7371L62.1457 11.1947ZM59.0565 9.23216C60.0345 9.23216 60.718 8.07385 60.718 6.42412C60.718 5.36477 60.3278 4.78779 59.6045 4.78779C58.6563 4.78779 57.9822 5.95082 57.9822 7.59111C57.9822 8.68256 58.345 9.23216 59.0565 9.23216Z" fill="#A8B2CA"/>
<path fill-rule="evenodd" clip-rule="evenodd" d="M32.627 11.0195C31.9109 11.2439 31.2187 11.3572 30.4764 11.3542C28.1424 11.3542 26.9229 10.0729 26.9229 7.62315C26.9229 4.75863 28.474 2.65015 30.5827 2.65015C32.3025 2.65015 33.4071 3.83187 33.4071 5.68388C33.4071 6.29713 33.3327 6.89507 33.1464 7.73987H28.9846C28.9672 7.86678 28.9645 7.92476 28.9645 7.99842C28.9645 8.97259 29.5871 9.46326 30.8051 9.46326C31.5517 9.46326 32.2239 9.30178 32.9763 8.93311L32.627 11.0195ZM31.4527 6.05614C31.4646 5.882 31.4675 5.73998 31.4675 5.6344C31.4675 4.95316 31.099 4.55542 30.4764 4.55542C29.8126 4.55542 29.337 5.08669 29.142 6.05047L31.4527 6.05614Z" fill="#A8B2CA"/>
<path fill-rule="evenodd" clip-rule="evenodd" d="M9.34331 11.1948H7.25221L8.4498 3.31823L5.77381 11.1948H4.34067L4.16743 3.36451L2.90583 11.1948H0.947266L2.5813 0.94458H5.59488L5.67782 7.28742L7.71193 0.94458H10.9643L9.34331 11.1948Z" fill="#A8B2CA"/>
<path fill-rule="evenodd" clip-rule="evenodd" d="M14.7312 7.48194C14.5099 7.45569 14.4126 7.44606 14.2626 7.44606C13.0768 7.44606 12.4758 7.87648 12.4758 8.71844C12.4758 9.23744 12.7712 9.56814 13.228 9.56814C14.0793 9.56814 14.6964 8.71844 14.7312 7.48194ZM16.2534 11.1948H14.5201L14.558 10.3295C14.0297 11.0196 13.324 11.3397 12.365 11.3397C11.2271 11.3397 10.4502 10.4109 10.4502 9.06878C10.4502 7.03395 11.8078 5.8526 14.1288 5.8526C14.3658 5.8526 14.6686 5.87092 14.98 5.91436C15.0454 5.63862 15.063 5.51963 15.063 5.37345C15.063 4.82291 14.6992 4.61403 13.7183 4.61403C13.1262 4.61403 12.4464 4.70393 11.978 4.85219L11.687 4.93623L11.5037 4.99025L11.7917 3.12086C12.8367 2.79696 13.5248 2.67212 14.3003 2.67212C16.0989 2.67212 17.052 3.51861 17.052 5.11603C17.052 5.53097 17.0215 5.83882 16.879 6.76954L16.441 9.72282L16.3696 10.2562L16.3159 10.6809L16.2795 10.9712L16.2534 11.1948Z" fill="#A8B2CA"/>
<path fill-rule="evenodd" clip-rule="evenodd" d="M49.0802 7.48194C48.8625 7.45569 48.7614 7.44606 48.6152 7.44606C47.4246 7.44606 46.8217 7.87648 46.8217 8.71844C46.8217 9.23744 47.1203 9.56814 47.5774 9.56814C48.4327 9.56814 49.0427 8.71844 49.0802 7.48194ZM50.6039 11.1948H48.8683L48.9087 10.3295C48.3808 11.0196 47.6736 11.3397 46.7159 11.3397C45.5779 11.3397 44.7979 10.4109 44.7979 9.06878C44.7979 7.03395 46.1541 5.8526 48.4796 5.8526C48.7154 5.8526 49.021 5.87092 49.3303 5.91436C49.3945 5.63862 49.4133 5.51963 49.4133 5.37345C49.4133 4.82291 49.0497 4.61403 48.0691 4.61403C47.4735 4.61403 46.7956 4.70393 46.3312 4.85219L46.0335 4.93623L45.8525 4.99025L46.1437 3.12086C47.19 2.79696 47.8766 2.67212 48.6466 2.67212C50.448 2.67212 51.4012 3.51861 51.4012 5.11603C51.4012 5.53097 51.3652 5.83882 51.2297 6.76954L50.7883 9.72282L50.7235 10.2562L50.665 10.6809L50.6268 10.9712L50.6039 11.1948Z" fill="#A8B2CA"/>
<path fill-rule="evenodd" clip-rule="evenodd" d="M56.45 2.79057C56.388 2.77811 56.3195 2.76904 56.2394 2.76904C55.5523 2.76904 55.1594 3.13299 54.516 4.12604L54.7027 2.85932H52.8093L51.5293 11.1945H53.6253C54.3782 6.10005 54.5758 5.22032 55.5773 5.22032C55.6422 5.22032 55.6379 5.21447 55.7236 5.22882C55.9134 4.22444 56.1693 3.48597 56.5211 2.81248L56.45 2.79057Z" fill="#A8B2CA"/>
<path fill-rule="evenodd" clip-rule="evenodd" d="M47.6672 19.2786C47.6672 21.1681 47.0808 22.2807 46.1564 22.2807C45.4816 22.3015 45.0724 21.5514 45.0724 20.4293C45.0724 19.1023 45.6702 17.5982 46.6294 17.5982C47.4004 17.5984 47.6672 18.4134 47.6672 19.2786ZM49.7257 19.3133C49.7257 17.2129 48.6853 15.5781 46.7297 15.5781C44.4785 15.5781 43.0205 17.5661 43.0205 20.4928C43.0205 22.588 43.8822 24.3012 46.0136 24.3012C48.1646 24.3012 49.7257 22.7822 49.7257 19.3133Z" fill="#A8B2CA"/>
<path fill-rule="evenodd" clip-rule="evenodd" d="M43.6933 14.1032L43.3734 16.3242C42.6775 15.9323 42.1712 15.7697 41.624 15.7697C40.1615 15.7697 39.14 17.3564 39.14 19.612C39.14 21.1692 39.8241 22.1112 40.9636 22.1112C41.4494 22.1112 41.9811 21.9458 42.6264 21.5826L42.2875 23.9209C41.5642 24.1432 41.092 24.2193 40.5548 24.2193C38.4478 24.2193 37.1353 22.5205 37.1353 19.7944C37.1353 16.1263 38.9467 13.5664 41.5413 13.5664C41.8772 13.5664 42.1744 13.6089 42.4202 13.6765L43.2207 13.9032C43.4678 14.001 43.519 14.0182 43.6933 14.1032Z" fill="#A8B2CA"/>
<path fill-rule="evenodd" clip-rule="evenodd" d="M30.751 15.6295C30.6913 15.6131 30.6226 15.6064 30.5501 15.6064C29.9154 15.6064 29.5431 15.9719 28.9482 16.9615L29.1213 15.6971H27.3515L26.1567 24.0332H28.1109C28.814 18.9337 28.9999 18.0562 29.9374 18.0562C29.9926 18.0562 29.9983 18.0562 30.0799 18.0657C30.2562 17.0573 30.4935 16.3187 30.8222 15.6438L30.751 15.6295Z" fill="#A8B2CA"/>
<path fill-rule="evenodd" clip-rule="evenodd" d="M56.2802 23.9442H54.4335L54.5285 23.1306C53.9914 23.7722 53.4326 24.0562 52.7178 24.0562C51.2938 24.0562 50.3535 22.6781 50.3535 20.5945C50.3535 17.8267 51.813 15.4791 53.5385 15.4791C54.2998 15.4791 54.8775 15.8379 55.4113 16.6278L55.8424 13.6968H57.7661L56.2802 23.9442ZM53.3908 21.9834C54.3114 21.9834 54.946 20.826 54.946 19.1748C54.946 18.1124 54.5834 17.5421 53.9113 17.5421C53.0223 17.5421 52.3907 18.7008 52.3907 20.3463C52.3907 21.4325 52.7296 21.9834 53.3908 21.9834Z" fill="#A8B2CA"/>
<path fill-rule="evenodd" clip-rule="evenodd" d="M12.4238 23.9099C11.759 24.1386 11.1112 24.2493 10.4216 24.2493C8.23889 24.2493 7.09961 22.9654 7.09961 20.5164C7.09961 17.6558 8.54884 15.5457 10.5161 15.5457C12.1271 15.5457 13.1542 16.7253 13.1542 18.5773C13.1542 19.1894 13.0844 19.7893 12.9172 20.6344H9.02163C9.00989 20.7589 9.00554 20.8206 9.00554 20.8934C9.00554 21.8653 9.58909 22.3556 10.7227 22.3556C11.4212 22.3556 12.0526 22.1931 12.7526 21.8277L12.4238 23.9099ZM11.3309 18.9505C11.3398 18.7743 11.3454 18.634 11.3454 18.5269C11.3454 17.8472 11.0022 17.4494 10.4214 17.4494C9.79718 17.4494 9.35317 17.9845 9.17443 18.9418L11.3309 18.9505Z" fill="#A8B2CA"/>
<path fill-rule="evenodd" clip-rule="evenodd" d="M35.6731 23.9099C35.0063 24.1386 34.3572 24.2493 33.6701 24.2493C31.483 24.2493 30.3452 22.9654 30.3452 20.5164C30.3452 17.6558 31.796 15.5457 33.7617 15.5457C35.373 15.5457 36.4034 16.7253 36.4034 18.5773C36.4034 19.1894 36.3305 19.7893 36.1575 20.6344H32.2705C32.2585 20.7589 32.2513 20.8206 32.2513 20.8934C32.2513 21.8653 32.8336 22.3556 33.967 22.3556C34.6656 22.3556 35.2988 22.1931 35.999 21.8277L35.6731 23.9099ZM34.5742 18.9505C34.5871 18.7743 34.5943 18.634 34.5943 18.5269C34.5943 17.8472 34.2481 17.4494 33.6699 17.4494C33.0454 17.4494 32.602 17.9845 32.4214 18.9418L34.5742 18.9505Z" fill="#A8B2CA"/>
<path fill-rule="evenodd" clip-rule="evenodd" d="M62.9488 23.9099C62.2732 24.1386 61.6328 24.2493 60.9406 24.2493C58.758 24.2493 57.6157 22.9654 57.6157 20.5164C57.6157 17.6558 59.0695 15.5457 61.0351 15.5457C62.646 15.5457 63.6722 16.7253 63.6722 18.5773C63.6722 19.1894 63.6052 19.7893 63.432 20.6344H59.541C59.5273 20.7589 59.5245 20.8206 59.5245 20.8934C59.5245 21.8653 60.1084 22.3556 61.242 22.3556C61.9413 22.3556 62.5716 22.1931 63.2733 21.8277L62.9488 23.9099ZM61.85 18.9505C61.8587 18.7743 61.8644 18.634 61.8644 18.5269C61.8644 17.8472 61.5226 17.4494 60.9406 17.4494C60.3161 17.4494 59.8742 17.9845 59.6932 18.9418L61.85 18.9505Z" fill="#A8B2CA"/>
<path fill-rule="evenodd" clip-rule="evenodd" d="M6.63796 16.0064C6.25529 15.7511 5.73725 15.528 5.00525 15.528C4.21512 15.528 3.57931 15.6914 3.57931 16.53C3.57931 18.0109 6.46035 17.4579 6.46035 20.6291C6.46035 23.5176 4.55878 24.2664 2.8386 24.2664C2.07327 24.2664 1.19282 24.0139 0.543945 23.7263L1.01105 21.6038C1.40262 21.9585 2.19256 22.2016 2.8386 22.2016C3.45415 22.2016 4.41885 22.0339 4.41885 20.9622C4.41885 19.2842 1.53932 19.9084 1.53932 16.963C1.53932 14.2687 3.22145 13.4617 4.84412 13.4617C5.75789 13.4617 6.61637 13.5954 7.11984 13.9291L6.63796 16.0064Z" fill="#A8B2CA"/>
<path fill-rule="evenodd" clip-rule="evenodd" d="M18.1466 23.9068C17.7435 24.1002 17.2052 24.2275 16.4107 24.2275C14.7024 24.2275 13.6431 22.5243 13.6431 20.4508C13.6431 17.737 15.1754 15.572 17.4307 15.572C17.9226 15.572 18.6733 15.7843 19.2656 16.1267L18.8333 18.1175C18.4141 17.8427 17.9777 17.668 17.5282 17.668C16.4832 17.668 15.7368 18.6233 15.7368 20.335C15.7368 21.3205 16.2782 22.1288 17.1336 22.1288C17.6428 22.1288 18.001 22.0218 18.4391 21.7662L18.1466 23.9068Z" fill="#A8B2CA"/>
<path fill-rule="evenodd" clip-rule="evenodd" d="M25.4575 21.8195C25.3571 22.5366 25.2639 23.2327 25.2085 23.9808H23.327L23.4856 22.6335H23.4665C22.8773 23.5493 22.2676 24.1727 21.2023 24.1727C20.021 24.1727 19.3809 22.9328 19.3809 21.3135C19.3809 20.7554 19.4157 20.4404 19.5407 19.5688L20.0733 15.7106H22.1672L21.6055 19.5801C21.5487 19.9958 21.4687 20.4081 21.4687 20.8381C21.4687 21.3258 21.6914 21.8191 22.256 21.7889C23.1143 21.7889 23.6208 20.7416 23.7649 19.5197L24.3428 15.7104H26.3697L25.4575 21.8195Z" fill="#A8B2CA"/>
<path fill-rule="evenodd" clip-rule="evenodd" d="M64.8998 23.8805H64.5831V22.498H64.125V22.2019H65.3579V22.498H64.8998V23.8805Z" fill="#A8B2CA"/>
<path fill-rule="evenodd" clip-rule="evenodd" d="M67.0002 23.8803H66.7043V22.477H66.7001L66.4173 23.8803H66.107L65.8308 22.477H65.8264V23.8803H65.5312V22.2017H65.9931L66.268 23.525H66.2722L66.5421 22.2017H67.0002V23.8803Z" fill="#A8B2CA"/>
</svg>
