<svg width="71" height="27" viewBox="0 0 71 27" fill="none" xmlns="http://www.w3.org/2000/svg">
<path d="M48.301 15.3372L49.0083 15.5489C48.9612 15.7488 48.8905 15.9134 48.7843 16.0428C48.6782 16.1722 48.5604 16.278 48.4071 16.3368C48.2538 16.4073 48.0652 16.4426 47.8294 16.4426C47.5465 16.4426 47.3225 16.4073 47.1338 16.325C46.957 16.2427 46.8037 16.1016 46.6741 15.8899C46.5444 15.69 46.4736 15.4195 46.4736 15.102C46.4736 14.6787 46.5915 14.3494 46.8155 14.1142C47.0395 13.879 47.3696 13.7732 47.7823 13.7732C48.1124 13.7732 48.3599 13.8438 48.5486 13.9731C48.7372 14.1025 48.8787 14.3024 48.9612 14.5846L48.2538 14.7375C48.2302 14.6552 48.2067 14.5964 48.1713 14.5611C48.1241 14.5023 48.077 14.4552 48.0063 14.42C47.9355 14.3847 47.8648 14.3729 47.794 14.3729C47.6172 14.3729 47.4757 14.4435 47.3814 14.5964C47.3107 14.7022 47.2753 14.8786 47.2753 15.102C47.2753 15.3843 47.3225 15.5842 47.405 15.69C47.4875 15.7958 47.6172 15.8546 47.7705 15.8546C47.9237 15.8546 48.0416 15.8076 48.1124 15.7253C48.2067 15.6194 48.2656 15.5019 48.301 15.3372Z" fill="#A8B2CA"/>
<path d="M49.2915 15.0994C49.2915 14.676 49.4094 14.3468 49.6452 14.1116C49.881 13.8764 50.2111 13.7588 50.6355 13.7588C51.0717 13.7588 51.4018 13.8764 51.6376 14.0998C51.8734 14.335 51.9913 14.6525 51.9913 15.0759C51.9913 15.3816 51.9441 15.6286 51.838 15.8167C51.7319 16.0049 51.5904 16.1577 51.39 16.2636C51.2014 16.3694 50.9538 16.4282 50.6709 16.4282C50.3761 16.4282 50.1403 16.3812 49.9399 16.2871C49.7513 16.193 49.598 16.0519 49.4683 15.8402C49.3387 15.6286 49.2915 15.4051 49.2915 15.0994ZM50.0932 15.0994C50.0932 15.3581 50.1403 15.5462 50.2347 15.6638C50.329 15.7814 50.4587 15.8402 50.6355 15.8402C50.8123 15.8402 50.942 15.7814 51.0363 15.6756C51.1306 15.558 51.1778 15.3581 51.1778 15.0759C51.1778 14.8289 51.1306 14.6525 51.0245 14.5467C50.9302 14.4291 50.7888 14.382 50.6237 14.382C50.4587 14.382 50.329 14.4408 50.2347 14.5584C50.1403 14.6525 50.0932 14.8407 50.0932 15.0994Z" fill="#A8B2CA"/>
<path d="M52.4035 13.8057H53.4527L53.8536 15.3814L54.2544 13.8057H55.3036V16.3928H54.6434V14.4172L54.1365 16.3928H53.547L53.0401 14.4172V16.3928H52.3799V13.8057H52.4035Z" fill="#A8B2CA"/>
<path d="M55.8223 13.8057H57.1545C57.4492 13.8057 57.6614 13.8762 57.8029 14.0173C57.9444 14.1585 58.0151 14.3466 58.0151 14.6053C58.0151 14.864 57.9326 15.0757 57.7793 15.2168C57.626 15.3697 57.3785 15.4402 57.0601 15.4402H56.6239V16.4045H55.8223V13.8057ZM56.6239 14.9111H56.8244C56.9776 14.9111 57.0837 14.8875 57.1545 14.8287C57.2134 14.7699 57.2488 14.7112 57.2488 14.6288C57.2488 14.5465 57.2252 14.476 57.1663 14.4172C57.1073 14.3584 57.013 14.3348 56.8597 14.3348H56.6357V14.9111H56.6239Z" fill="#A8B2CA"/>
<path d="M58.4395 13.8057H59.2411V15.7578H60.4908V16.3928H58.4395V13.8057Z" fill="#A8B2CA"/>
<path d="M60.8921 13.8057H61.6942V16.3928H60.8921V13.8057Z" fill="#A8B2CA"/>
<path d="M63.8631 15.9577H62.9554L62.8257 16.3811H62.0122L62.9907 13.7939H63.8631L64.8417 16.3811H64.0046L63.8631 15.9577ZM63.6981 15.405L63.4151 14.476L63.1322 15.405H63.6981Z" fill="#A8B2CA"/>
<path d="M65.0889 13.8057H65.8316L66.8101 15.2403V13.8057H67.5646V16.3928H66.8101L65.8434 14.9699V16.3928H65.0889V13.8057Z" fill="#A8B2CA"/>
<path d="M67.9185 13.8057H70.3589V14.4407H69.5454V16.3928H68.7437V14.4407H67.9302V13.8057H67.9185Z" fill="#A8B2CA"/>
<path fill-rule="evenodd" clip-rule="evenodd" d="M40.9798 17.0161L38.6573 17.7452C39.1171 16.9338 39.6712 16.0401 40.2253 15.3463L40.9798 17.0161ZM33.3168 0L37.8675 10.1132C37.3501 10.8176 35.8003 12.9529 34.3418 15.0452V8.33179H30.2155V17.3191C29.6465 16.9347 29.0477 16.6643 28.4709 16.5673V16.1165C28.4709 16.0812 28.4473 16.0694 28.4237 16.0929C28.4237 16.0929 27.9757 16.4457 26.0187 16.6456C25.4646 16.7044 25.1934 16.6809 24.993 16.6456C22.2107 16.1753 22.081 14.1526 22.081 14.1526C22.081 14.1332 22.0775 14.1066 22.0743 14.0828C22.0716 14.0633 22.0692 14.0456 22.0692 14.035V13.2589C22.0692 13.2236 22.0692 13.1648 22.081 13.1413C22.081 13.1413 22.2697 10.9658 24.993 10.7306H26.0187C27.2094 10.8835 28.1761 11.4714 28.1761 11.4714C28.2115 11.4832 28.2351 11.4714 28.2351 11.4362V8.70793C28.2351 8.67265 28.2115 8.63737 28.1761 8.61385C28.1761 8.61385 27.6338 8.26106 25.9833 8.16699C25.9008 8.11995 24.4507 8.10819 24.0616 8.16699C18.0491 8.64913 17.8251 12.9884 17.8251 13.1766V14.2349C17.8251 14.3643 17.8251 18.7977 24.0616 19.1857C24.5621 19.2241 25.4474 19.1998 25.82 19.1896C25.9038 19.1873 25.9617 19.1857 25.9833 19.1857L26.0033 19.1857C26.1346 19.9134 26.4953 20.6939 26.9977 21.4142L9.23108 27L0 1.88153L33.3168 0ZM34.8016 4.93327C34.8016 6.25034 33.6698 7.30871 32.2787 7.30871C30.8875 7.30871 29.7557 6.23858 29.7557 4.93327C29.7557 3.6162 30.8875 2.55783 32.2787 2.55783C33.6698 2.55783 34.8016 3.6162 34.8016 4.93327ZM6.42467 19.1153C6.3893 19.1153 6.36572 19.0917 6.36572 19.0565V8.39052C6.36572 8.35524 6.3893 8.33173 6.42467 8.33173H11.6356C12.956 8.27293 16.9879 8.63747 16.9879 12.036C16.9879 16.3282 10.5627 15.8696 10.5627 15.8696C10.5274 15.8696 10.5038 15.8931 10.5038 15.9284V19.0565C10.5038 19.0917 10.4802 19.1153 10.4448 19.1153H6.42467ZM10.4331 10.6719V13.4824H11.5413C11.5413 13.4824 12.7791 13.4236 12.9678 12.2829C12.9913 12.2594 12.9913 11.7773 12.9678 11.7067C12.8499 10.7307 11.4234 10.6719 11.4234 10.6719H10.4331Z" fill="#A8B2CA"/>
<path d="M32.3971 24.2836C32.7272 24.2836 32.9866 24.2836 33.411 24.0955C34.8729 23.3311 39.8126 11.3011 45.0235 7.59678C45.0589 7.57326 45.0943 7.53799 45.1179 7.50271C45.1532 7.45567 45.1532 7.40863 45.1532 7.40863C45.1532 7.40863 45.1532 7.16168 44.3869 7.16168C39.7537 7.03233 34.9318 16.734 32.3971 20.5676C32.3618 20.6146 32.1967 20.5676 32.1967 20.5676C32.1967 20.5676 30.499 18.5685 29.0254 17.8041C28.99 17.7923 28.8249 17.7335 28.6481 17.7453C28.5302 17.7453 27.8464 17.8864 27.5281 18.2157C27.1508 18.6155 27.1626 18.8389 27.1626 19.3211C27.1626 19.3564 27.1862 19.521 27.2334 19.6033C27.5988 20.2383 29.2376 22.4962 30.5933 23.7427C30.7938 23.8956 31.1121 24.2836 32.3971 24.2836Z" fill="#A8B2CA"/>
<path d="M46.3911 3.96362H50.2462C51.0125 3.96362 51.6256 4.06946 52.0854 4.26937C52.557 4.48105 52.946 4.77503 53.2407 5.15134C53.5473 5.53941 53.7713 5.98627 53.9009 6.49193C54.0424 6.9976 54.1131 7.53853 54.1131 8.11475C54.1131 9.00848 54.007 9.7023 53.8066 10.1962C53.6062 10.6901 53.3233 11.1017 52.9578 11.4427C52.5923 11.772 52.2033 11.9954 51.7906 12.113C51.2248 12.2659 50.706 12.3364 50.2462 12.3364H46.3911V3.96362ZM48.9848 5.85692V10.4314H49.6214C50.1637 10.4314 50.5528 10.3726 50.7768 10.255C51.0008 10.1374 51.1894 9.92573 51.3191 9.63174C51.4488 9.33775 51.5195 8.84385 51.5195 8.17355C51.5195 7.27982 51.378 6.68009 51.0833 6.35082C50.7885 6.02155 50.317 5.85692 49.6332 5.85692H48.9848Z" fill="#A8B2CA"/>
<path d="M54.8325 9.57226L57.3083 9.41938C57.3672 9.8192 57.4733 10.125 57.6384 10.3366C57.9095 10.6777 58.2868 10.8423 58.782 10.8423C59.1474 10.8423 59.4422 10.76 59.6426 10.5836C59.843 10.4072 59.9491 10.2073 59.9491 9.98384C59.9491 9.77217 59.8548 9.57226 59.6662 9.39586C59.4775 9.21947 59.0295 9.06659 58.334 8.91372C57.1904 8.65501 56.3887 8.31398 55.8936 7.89063C55.3984 7.46729 55.1626 6.92635 55.1626 6.26781C55.1626 5.83271 55.2923 5.43288 55.5399 5.04482C55.7875 4.65675 56.1647 4.36276 56.6717 4.13933C57.1786 3.9159 57.8624 3.81006 58.7348 3.81006C59.8076 3.81006 60.6329 4.00997 61.187 4.4098C61.7529 4.80962 62.083 5.44464 62.1891 6.31485L59.7369 6.45597C59.6662 6.07966 59.5365 5.80919 59.3243 5.6328C59.1121 5.4564 58.8291 5.37408 58.4636 5.37408C58.1571 5.37408 57.9331 5.43288 57.7799 5.56224C57.6266 5.69159 57.5559 5.84447 57.5559 6.03262C57.5559 6.16198 57.6148 6.29133 57.7445 6.39717C57.8624 6.503 58.1571 6.60884 58.6169 6.70291C59.7487 6.94987 60.5622 7.19682 61.0573 7.44377C61.5525 7.69072 61.9061 8.00823 62.1301 8.37278C62.3541 8.73732 62.4602 9.16067 62.4602 9.61929C62.4602 10.1602 62.307 10.6541 62.0122 11.101C61.7175 11.5596 61.2931 11.9007 60.7626 12.1358C60.2321 12.371 59.5483 12.4886 58.7348 12.4886C57.3083 12.4886 56.318 12.2182 55.7639 11.6655C55.2216 11.1128 54.915 10.4189 54.8325 9.57226Z" fill="#A8B2CA"/>
<path d="M63.1201 9.57226L65.5959 9.41938C65.6548 9.8192 65.7609 10.125 65.926 10.3366C66.1971 10.6777 66.5744 10.8423 67.0696 10.8423C67.435 10.8423 67.7298 10.76 67.9302 10.5836C68.1306 10.4072 68.2367 10.2073 68.2367 9.98384C68.2367 9.77217 68.1424 9.57226 67.9538 9.39586C67.7651 9.21947 67.3171 9.06659 66.6216 8.91372C65.478 8.65501 64.6763 8.31398 64.1812 7.89063C63.6978 7.46729 63.4502 6.92635 63.4502 6.26781C63.4502 5.83271 63.5799 5.43288 63.8275 5.04482C64.0751 4.65675 64.4523 4.36276 64.9593 4.13933C65.4662 3.9159 66.15 3.81006 67.0224 3.81006C68.0952 3.81006 68.9205 4.00997 69.4746 4.4098C70.0405 4.80962 70.3706 5.44464 70.4767 6.31485L68.0245 6.45597C67.9538 6.07966 67.8241 5.80919 67.6119 5.6328C67.3997 5.4564 67.1167 5.37408 66.7512 5.37408C66.4447 5.37408 66.2207 5.43288 66.0675 5.56224C65.9142 5.69159 65.8435 5.84447 65.8435 6.03262C65.8435 6.16198 65.9024 6.29133 66.0321 6.39717C66.15 6.503 66.4447 6.60884 66.9045 6.70291C68.0363 6.94987 68.8497 7.19682 69.3449 7.44377C69.8401 7.69072 70.1937 8.00823 70.4177 8.37278C70.6417 8.73732 70.7478 9.16067 70.7478 9.61929C70.7478 10.1602 70.5946 10.6541 70.2998 11.101C70.0051 11.5596 69.5807 11.9007 69.0502 12.1358C68.5196 12.371 67.8359 12.4886 67.0224 12.4886C65.5959 12.4886 64.6056 12.2182 64.0515 11.6655C63.4974 11.1128 63.1909 10.4189 63.1201 9.57226Z" fill="#A8B2CA"/>
</svg>
