<svg width="55" height="24" viewBox="0 0 55 24" fill="none" xmlns="http://www.w3.org/2000/svg">
<path d="M25.0146 23.7623L26.7433 13.0981H29.5046L27.7759 23.7623H25.0146Z" fill="#A8B2CA"/>
<path d="M37.7882 13.3586C37.2429 13.1445 36.3785 12.9072 35.3112 12.9072C32.5847 12.9072 30.6646 14.3596 30.6472 16.4311C30.6298 17.9645 32.022 18.8208 33.0662 19.33C34.1452 19.8508 34.499 20.1864 34.499 20.6493C34.4874 21.3668 33.6405 21.6908 32.8457 21.6908C31.7378 21.6908 31.1519 21.5288 30.2469 21.1353L29.8931 20.9675L29.5044 23.3515C30.1541 23.6466 31.3433 23.907 32.5847 23.9186C35.4794 23.9186 37.3647 22.4893 37.3879 20.2732C37.3995 19.0581 36.6628 18.1438 35.0675 17.38C34.1104 16.8882 33.5071 16.5584 33.5187 16.055C33.5187 15.6152 34.0175 15.1407 35.1023 15.1407C36.0073 15.1292 36.657 15.3317 37.1675 15.5516L37.4111 15.6731L37.7882 13.3586Z" fill="#A8B2CA"/>
<path d="M41.4662 19.9837C41.6924 19.3646 42.5625 16.998 42.5625 16.998C42.5451 17.0269 42.7888 16.3847 42.9338 15.9796L43.1136 16.9054C43.1136 16.9054 43.6473 19.4456 43.7575 19.9837C43.3283 19.9837 42.0057 19.9837 41.4662 19.9837ZM44.8713 13.1096H42.7366C42.0695 13.1096 41.5764 13.2948 41.2863 13.9949L37.1851 23.7622H40.0913C40.0913 23.7622 40.5612 22.4487 40.6714 22.1594C40.9847 22.1594 43.804 22.1652 44.2042 22.1652C44.2912 22.5413 44.5407 23.7622 44.5407 23.7622H47.1047L44.8713 13.1096Z" fill="#A8B2CA"/>
<path d="M22.6999 13.1096L19.9967 20.3772L19.7124 18.8959C19.0337 17.0906 17.5777 15.1927 15.8838 14.4173L18.355 23.7506H21.2787L25.6236 13.1096H22.6999Z" fill="#A8B2CA"/>
<path d="M17.4905 13.1038H13.0412L13.0122 13.2831C16.4754 14.1684 18.761 16.3383 19.7123 18.9016L18.7436 14.0006C18.5753 13.3236 18.0938 13.1269 17.4905 13.1038Z" fill="#A8B2CA"/>
<path d="M4.68787 10.5233H2.92438L0.894043 1.39825L2.84317 1.07422L4.22959 8.21452L7.77398 1.1668H9.64189L4.68787 10.5233Z" fill="#A8B2CA"/>
<path d="M11.3708 4.94488C10.7211 4.94488 10.1178 5.45986 9.82776 6.53033H12.4266C12.4788 5.51194 12.1597 4.94488 11.3708 4.94488ZM13.8478 7.54293H9.64793C9.52611 8.81013 10.1236 9.36562 11.1214 9.36562C11.9625 9.36562 12.6992 9.05316 13.494 8.54975L13.4882 9.82273C12.7166 10.3088 11.8117 10.6212 10.7559 10.6212C8.92861 10.6212 7.71621 9.5855 8.08167 7.23047C8.41232 5.1069 9.87997 3.82812 11.5854 3.82812C13.552 3.82812 14.2017 5.29785 13.9174 7.14946C13.8942 7.28833 13.8594 7.45035 13.8478 7.54293Z" fill="#A8B2CA"/>
<path d="M16.5799 6.74442L15.9998 10.4882H14.3755L15.3791 3.96121H16.7655V5.2747C17.3166 4.5167 18.0649 3.8802 19.0859 3.82812L19.0975 5.43672C18.0707 5.50037 17.1483 6.04428 16.5799 6.74442Z" fill="#A8B2CA"/>
<path d="M21.0756 2.86783C20.5361 2.86783 20.1591 2.49172 20.2461 1.94781C20.3273 1.39811 20.8204 1.00464 21.3657 1.00464C21.8935 1.00464 22.2648 1.39811 22.1778 1.94781C22.0966 2.49172 21.6035 2.86783 21.0756 2.86783ZM19.0801 10.4884L20.0836 3.96144H21.7079L20.7043 10.4884H19.0801Z" fill="#A8B2CA"/>
<path d="M26.2035 2.17956C25.6524 2.17956 25.3218 2.42258 25.2232 3.00121L25.0782 3.96174H26.3254V5.2868H24.8751L24.0688 10.4887H22.4619L23.2625 5.2868H22.3169L22.5199 3.96174H23.4713L23.6395 2.84498C23.8658 1.3984 24.8693 0.854492 26.2035 0.854492C26.4936 0.854492 26.7082 0.883424 26.859 0.906569L26.8764 2.23163C26.7198 2.20849 26.4762 2.17956 26.2035 2.17956Z" fill="#A8B2CA"/>
<path d="M28.2226 2.86783C27.6889 2.86783 27.3118 2.49172 27.393 1.94781C27.4801 1.39811 27.9731 1.00464 28.5184 1.00464C29.0405 1.00464 29.4176 1.39811 29.3306 1.94781C29.2494 2.49172 28.7563 2.86783 28.2226 2.86783ZM26.2271 10.4884L27.2306 3.96144H28.8549L27.8513 10.4884H26.2271Z" fill="#A8B2CA"/>
<path d="M32.6836 4.94488C32.0339 4.94488 31.4306 5.45986 31.1406 6.53033H33.7394C33.7916 5.51194 33.4725 4.94488 32.6836 4.94488ZM35.1548 7.54293H30.9607C30.8389 8.81013 31.4364 9.36562 32.44 9.36562C33.2753 9.36562 34.012 9.05316 34.8126 8.54975L34.801 9.82273C34.0294 10.3088 33.1187 10.6212 32.0629 10.6212C30.2414 10.6212 29.0348 9.5855 29.4003 7.23047C29.7251 5.1069 31.1928 3.82812 32.904 3.82812C34.8648 3.82812 35.5145 5.29785 35.2302 7.14946C35.207 7.28833 35.1722 7.45035 35.1548 7.54293Z" fill="#A8B2CA"/>
<path d="M40.5089 5.47743C40.1376 5.28649 39.836 5.19391 39.2791 5.19391C38.4322 5.19391 37.7012 5.88248 37.4808 7.31169C37.2836 8.57889 37.7302 9.17488 38.4496 9.17488C39.0471 9.17488 39.5633 8.8277 40.0796 8.28379L40.5089 5.47743ZM39.9694 10.4884L39.9752 9.58571C39.4299 10.1354 38.7164 10.6215 37.8057 10.6215C36.4424 10.6215 35.5027 9.60885 35.8391 7.40427C36.2104 4.97403 37.7244 3.89199 39.2443 3.89199C39.8592 3.89199 40.3465 4.00193 40.7177 4.13501L41.205 0.99305L42.8699 0.732666L41.3674 10.4884H39.9694Z" fill="#A8B2CA"/>
<path d="M47.2493 6.52461C46.8374 6.52461 46.4256 6.80235 46.0601 7.17268L45.712 9.41198C45.9557 9.50456 46.1239 9.54506 46.4778 9.54506C47.2551 9.54506 47.8004 9.07637 47.9744 7.94804C48.1194 6.99909 47.8062 6.52461 47.2493 6.52461ZM46.3385 10.5461C45.567 10.5461 44.9463 10.4246 44.3662 10.2163L45.4336 3.29007L46.6866 3.09912L46.2225 6.09643C46.5938 5.76661 47.1043 5.44257 47.7308 5.44257C48.7807 5.44257 49.4769 6.21794 49.2216 7.87861C48.9432 9.69551 47.8178 10.5461 46.3385 10.5461Z" fill="#A8B2CA"/>
<path d="M52.1227 10.7486C51.4962 11.9695 50.8755 12.3456 49.9183 12.3456C49.7037 12.3456 49.5876 12.3283 49.4716 12.2936L49.4658 11.281C49.6224 11.3215 49.7965 11.3562 50.0285 11.3562C50.394 11.3562 50.7014 11.1884 50.9103 10.8354L51.0727 10.5056L50.0285 5.63353L51.3395 5.47729L51.9486 8.98958L53.5845 5.54094H54.8085L52.1227 10.7486Z" fill="#A8B2CA"/>
</svg>
